nColumns=19
nRows=57
DataType=double
version=3
OpenSimVersion=4.1
endheader
time	ground_force_1_vx	ground_force_1_vy	ground_force_1_vz	ground_force_1_px	ground_force_1_py	ground_force_1_pz	ground_force_1_mx	ground_force_1_my	ground_force_1_mz	ground_force_2_vx	ground_force_2_vy	ground_force_2_vz	ground_force_2_px	ground_force_2_py	ground_force_2_pz	ground_force_2_mx	ground_force_2_my	ground_force_2_mz
0	-78.3302	316.079	19.8578	0.093605	0.006	-0.216154	0	0.026221	0	0	0	0	0.726597	0	-0.315338	0	0	0
0.01	-84.1554	334.796	21.4651	0.0953554	0.006	-0.216729	0	0.567848	0	0	0	0	0.726597	0	-0.315338	0	0	0
0.02	-95.7065	370.964	21.498	0.0992467	0.006	-0.217101	0	1.5226	0	0	0	0	0.726597	0	-0.315338	0	0	0
0.03	-104.64	405.704	15.934	0.102523	0.006	-0.215576	0	1.97524	0	0	0	0	0.726597	0	-0.315338	0	0	0
0.04	-109.672	441.911	3.3025	0.105952	0.006	-0.21234	0	1.57129	0	0	0	0	0.726597	0	-0.315338	0	0	0
0.05	-112.209	481.421	-15.0742	0.110078	0.006	-0.207722	0	0.482803	0	0	0	0	0.726597	0	-0.315338	0	0	0
0.06	-118.439	522.958	-34.3779	0.11551	0.006	-0.202767	0	-0.405365	0	0	0	0	0.726597	0	-0.315338	0	0	0
0.07	-128.452	561.6	-45.9737	0.121548	0.006	-0.198898	0	-0.264225	0	0	0	0	0.726597	0	-0.315338	0	0	0
0.08	-135.907	596.02	-50.9992	0.12687	0.006	-0.196065	0	0.26717	0	0	0	0	0.726597	0	-0.315338	0	0	0
0.09	-137.187	628.957	-55.9179	0.130954	0.006	-0.193723	0	0.354542	0	0	0	0	0.726597	0	-0.315338	0	0	0
0.1	-133.898	656.86	-59.2926	0.133796	0.006	-0.192068	0	0.313013	0	0	0	0	0.726597	0	-0.315338	0	0	0
0.11	-129.313	678.299	-58.1362	0.13571	0.006	-0.191205	0	0.600116	0	0	0	0	0.726597	0	-0.315338	0	0	0
0.12	-123.874	697.159	-55.2416	0.137356	0.006	-0.19068	0	0.899704	0	0	0	0	0.726597	0	-0.315338	0	0	0
0.13	-116.858	710.187	-53.0096	0.138743	0.006	-0.190146	0	0.952024	0	0	0	0	0.726597	0	-0.315338	0	0	0
0.14	-108.468	712.069	-49.7942	0.139981	0.006	-0.189656	0	0.995622	0	0	0	0	0.726597	0	-0.315338	0	0	0
0.15	-99.7175	703.032	-45.5706	0.141419	0.006	-0.188963	0	1.04297	0	0	0	0	0.726597	0	-0.315338	0	0	0
0.16	-91.5293	686.542	-42.4917	0.14328	0.006	-0.187743	0	0.976874	0	0	0	0	0.726597	0	-0.315338	0	0	0
0.17	-84.1594	665.039	-41.29	0.145543	0.006	-0.185988	0	0.847094	0	0	0	0	0.726597	0	-0.315338	0	0	0
0.18	-77.8456	641.556	-41.4428	0.148585	0.006	-0.183738	0	0.784681	0	0	0	0	0.726597	0	-0.315338	0	0	0
0.19	-74.2228	620.249	-43.0298	0.152637	0.006	-0.180982	0	0.722316	0	0	0	0	0.726597	0	-0.315338	0	0	0
0.2	-70.858	599.066	-44.4691	0.156971	0.006	-0.178113	0	0.660777	0	0	0	0	0.726597	0	-0.315338	0	0	0
0.21	-65.2589	580.179	-45.4374	0.16111	0.006	-0.175194	0	0.61572	0	0	0	0	0.726597	0	-0.315338	0	0	0
0.22	-59.7068	565.009	-46.0413	0.165118	0.006	-0.172305	0	0.548987	0	0	0	0	0.726597	0	-0.315338	0	0	0
0.23	-53.2177	552.727	-45.8713	0.169093	0.006	-0.169351	0	0.527365	0	0	0	0	0.726597	0	-0.315338	0	0	0
0.24	-46.9773	541.998	-46.1366	0.173263	0.006	-0.166072	0	0.481516	0	0	0	0	0.726597	0	-0.315338	0	0	0
0.25	-42.1458	530.215	-46.2691	0.177653	0.006	-0.162736	0	0.402172	0	0	0	0	0.726597	0	-0.315338	0	0	0
0.26	-37.8355	517.775	-46.1006	0.181848	0.006	-0.159605	0	0.262763	0	0	0	0	0.726597	0	-0.315338	0	0	0
0.27	-33.5955	507.23	-45.8325	0.18572	0.006	-0.156816	0	0.112069	0	0	0	0	0.726597	0	-0.315338	0	0	0
0.28	-29.174	499.345	-45.4518	0.189503	0.006	-0.154302	0	-0.0186102	0	0	0	0	0.726597	0	-0.315338	0	0	0
0.29	-24.6556	494.04	-45.1361	0.193374	0.006	-0.151966	0	-0.144463	0	0	0	0	0.726597	0	-0.315338	0	0	0
0.3	-20.8863	490.515	-45.3085	0.197527	0.006	-0.149741	0	-0.286953	0	0	0	0	0.726597	0	-0.315338	0	0	0
0.31	-18.4774	487.832	-45.9899	0.201902	0.006	-0.14771	0	-0.445554	0	0	0	0	0.726597	0	-0.315338	0	0	0
0.32	-16.9485	486.749	-46.5417	0.206381	0.006	-0.146087	0	-0.613787	0	0	0	0	0.726597	0	-0.315338	0	0	0
0.33	-15.2964	487.829	-46.6251	0.210765	0.006	-0.144877	0	-0.814203	0	0	0	0	0.726597	0	-0.315338	0	0	0
0.34	-12.9995	491.633	-46.3232	0.214927	0.006	-0.14404	0	-1.01485	0	0	0	0	0.726597	0	-0.315338	0	0	0
0.35	-10.2754	497.844	-45.9237	0.218602	0.006	-0.143635	0	-1.26766	0	0	0	0	0.726597	0	-0.315338	0	0	0
0.36	-7.59855	505.872	-45.4136	0.222018	0.006	-0.143602	0	-1.58977	0	0	0	0	0.726597	0	-0.315338	0	0	0
0.37	-4.80225	514.649	-45.1583	0.225469	0.006	-0.143736	0	-1.88356	0	0	0	0	0.726597	0	-0.315338	0	0	0
0.38	-1.79283	524.541	-45.4902	0.228819	0.006	-0.143906	0	-2.13777	0	0	0	0	0.726597	0	-0.315338	0	0	0
0.39	1.14981	537.102	-46.2737	0.231961	0.006	-0.144159	0	-2.38424	0	0	0	0	0.726597	0	-0.315338	0	0	0
0.4	4.13265	552.593	-47.2414	0.235011	0.006	-0.144389	0	-2.59081	0	0	0	0	0.726597	0	-0.315338	0	0	0
0.41	7.29264	570.333	-48.3422	0.237929	0.006	-0.144442	0	-2.76886	0	0	0	0	0.726597	0	-0.315338	0	0	0
0.42	10.7595	588.745	-49.6395	0.240864	0.006	-0.14423	0	-2.94508	0	0	0	0	0.726597	0	-0.315338	0	0	0
0.43	14.6964	606.744	-51.3214	0.244038	0.006	-0.143736	0	-3.09426	0	0	0	0	0.726597	0	-0.315338	0	0	0
0.44	18.8519	622.984	-53.5643	0.24733	0.006	-0.142903	0	-3.21505	0	0	0	0	0.726597	0	-0.315338	0	0	0
0.45	23.4333	635.81	-56.3012	0.250878	0.006	-0.141869	0	-3.29071	0	0	0	0	0.726597	0	-0.315338	0	0	0
0.46	28.6397	645.364	-59.0404	0.254539	0.006	-0.14083	0	-3.27854	0	0	0	0	0.726597	0	-0.315338	0	0	0
0.47	34.2768	653.159	-61.4464	0.257939	0.006	-0.139855	0	-3.27138	0	0	0	0	0.726597	0	-0.315338	0	0	0
0.48	40.8799	660.089	-63.0496	0.260991	0.006	-0.138912	0	-3.29705	0	0	0	0	0.726597	0	-0.315338	0	0	0
0.49	49.2759	666.142	-63.5376	0.26365	0.006	-0.138029	0	-3.31479	0	0	0	0	0.726597	0	-0.315338	0	0	0
0.5	59.2142	670.158	-63.3607	0.265917	0.006	-0.137196	0	-3.2865	0	0	0	0	0.726597	0	-0.315338	0	0	0
0.51	69.793	671.514	-62.7976	0.268053	0.006	-0.136339	0	-3.18979	0	0	0	0	0.726597	0	-0.315338	0	0	0
0.52	80.1042	669.589	-62.0234	0.270162	0.006	-0.135387	0	-3.06059	0	0	0	0	0.726597	0	-0.315338	0	0	0
0.53	90.5547	664.522	-60.9092	0.272332	0.006	-0.134455	0	-2.92901	0	-1.14249	2.23136	0.113587	0.726597	0.0006	-0.315338	0	0.0441587	0
0.54	101.247	655.667	-59.1646	0.274454	0.006	-0.133586	0	-2.80283	0	-9.74013	53.1575	0.216147	0.73738	0.006	-0.322983	0	0.517505	0
0.55	110.995	641.437	-56.9798	0.276803	0.006	-0.132734	0	-2.6459	0	-1.62313	116.858	-6.21617	0.748744	0.006	-0.326874	0	0.591789	0
0.56	118.933	620.725	-54.7434	0.279496	0.006	-0.131906	0	-2.42182	0	-7.20254	162.391	-11.6731	0.753676	0.006	-0.326019	0	0.662779	0
